<svg width="208" height="212" viewBox="0 0 208 212" fill="none" xmlns="http://www.w3.org/2000/svg">
<path opacity="0.2" d="M109.273 17.6219L176.169 56.2442C179.432 58.1281 181.442 61.6098 181.442 65.3777V142.622C181.442 146.39 179.432 149.872 176.169 151.756L109.273 190.378C106.01 192.262 101.99 192.262 98.7267 190.378L31.831 151.756C28.5679 149.872 26.5577 146.39 26.5577 142.622V65.3777C26.5577 61.6098 28.5679 58.1281 31.831 56.2442L98.7267 17.6219C101.99 15.7379 106.01 15.7379 109.273 17.6219Z" stroke="#F59149"/>
<g filter="url(#filter0_d_180_3467)">
<path d="M98.7674 27.021C102.005 25.1516 105.995 25.1516 109.233 27.021L168.049 60.979C171.287 62.8484 173.282 66.3032 173.282 70.042V137.958C173.282 141.697 171.287 145.152 168.049 147.021L109.233 180.979C105.995 182.848 102.005 182.848 98.7674 180.979L39.9505 147.021C36.7126 145.152 34.718 141.697 34.718 137.958V70.042C34.718 66.3032 36.7126 62.8484 39.9505 60.979L98.7674 27.021Z" fill="white"/>
</g>
<g filter="url(#filter1_d_180_3467)">
<path d="M99 41.8868C102.094 40.1004 105.906 40.1004 109 41.8868L155.292 68.6132C158.386 70.3996 160.292 73.7008 160.292 77.2735V130.726C160.292 134.299 158.386 137.6 155.292 139.387L109 166.113C105.906 167.9 102.094 167.9 99 166.113L52.7083 139.387C49.6143 137.6 47.7083 134.299 47.7083 130.726V77.2735C47.7083 73.7008 49.6143 70.3996 52.7083 68.6132L99 41.8868Z" fill="white"/>
<path d="M107.75 44.0518L154.042 70.7783C156.362 72.1181 157.792 74.594 157.792 77.2735V130.726C157.792 133.406 156.362 135.882 154.042 137.222L107.75 163.948C105.429 165.288 102.571 165.288 100.25 163.948L53.9583 137.222C51.6378 135.882 50.2083 133.406 50.2083 130.727V77.2735C50.2083 74.594 51.6378 72.1181 53.9583 70.7783L100.25 44.0518C102.571 42.7121 105.429 42.7121 107.75 44.0518Z" stroke="#F59149" stroke-width="5"/>
</g>
<g clip-path="url(#clip0_180_3467)">
<path d="M129.849 101.41C128.878 100.355 127.674 99.5422 126.333 99.0372C126.193 98.8816 125.959 98.7416 125.92 98.5627C125.251 95.7001 123.805 93.1954 122.366 90.675C122.797 89.6814 122.976 88.5965 122.887 87.5169C122.91 87.1902 122.861 86.8625 122.745 86.5565C122.628 86.2506 122.446 85.9738 122.211 85.7456C121.976 85.5174 121.694 85.3433 121.385 85.2354C121.076 85.1275 120.747 85.0885 120.421 85.121C119.299 85.0689 118.178 85.2517 117.13 85.6578C114.978 84.117 112.568 82.9737 110.013 82.2818C109.633 82.1962 109.285 82.0047 109.009 81.7295C108.511 80.4261 107.73 79.2493 106.723 78.2835C104.965 76.58 103.059 76.58 101.277 78.2835C100.264 79.2459 99.48 80.4236 98.9827 81.7295C98.6756 82.0353 98.2817 82.239 97.8547 82.3129C95.338 83.0029 92.9664 84.1412 90.8539 85.6733C89.7232 85.224 88.5037 85.043 87.2912 85.1444C87.0067 85.1382 86.7238 85.1886 86.4589 85.2928C86.194 85.3969 85.9525 85.5527 85.7484 85.751C85.5443 85.9493 85.3816 86.1863 85.2699 86.448C85.1582 86.7098 85.0996 86.9911 85.0976 87.2757C84.9543 88.4406 85.1262 89.6226 85.5954 90.6984C84.03 93.1306 82.8322 95.7806 82.0406 98.5627C82.0017 98.7416 81.7683 98.8816 81.6283 99.0372C80.2037 99.5779 78.9384 100.469 77.949 101.628C77.6304 101.944 77.3785 102.321 77.208 102.736C77.0375 103.151 76.9519 103.596 76.9562 104.045C76.9606 104.494 77.0548 104.937 77.2333 105.349C77.4118 105.761 77.671 106.133 77.9956 106.443C79.0611 107.635 80.394 108.557 81.885 109.134C82.6442 112.003 83.8943 114.719 85.5799 117.162C85.0587 118.873 84.3431 120.748 85.7588 122.21C87.1745 123.672 88.8703 122.887 90.426 122.467C90.4666 122.446 90.5056 122.423 90.5427 122.397C90.7124 122.417 90.8778 122.465 91.0328 122.537C93.2161 124.047 95.6495 125.158 98.2204 125.819C98.5548 125.905 98.7026 126.162 98.9282 126.348C99.4547 127.688 100.279 128.891 101.34 129.864C101.654 130.218 102.039 130.502 102.468 130.699C102.898 130.896 103.364 131.002 103.837 131.01C104.31 131.018 104.78 130.928 105.216 130.746C105.652 130.563 106.046 130.292 106.372 129.95C107.537 128.89 108.439 127.575 109.009 126.107C110.865 125.501 112.683 124.786 114.455 123.968C115.411 123.462 116.213 122.677 117.286 122.412C118.213 122.783 119.206 122.958 120.203 122.926C121.922 122.871 122.754 122.047 122.809 120.351C122.848 119.266 122.66 118.185 122.257 117.177C123.969 114.717 125.257 111.988 126.068 109.103C127.496 108.574 128.782 107.722 129.825 106.614C131.389 104.918 131.404 103.105 129.849 101.41ZM87.1745 98.7027C87.135 97.2511 87.4812 95.8151 88.178 94.5411C88.3038 94.2215 88.509 93.9392 88.7741 93.7208C89.0392 93.5025 89.3555 93.3552 89.6933 93.293C90.031 93.2307 90.3791 93.2555 90.7046 93.365C91.0302 93.4745 91.3225 93.6651 91.554 93.9188C94.5799 96.8747 97.5825 99.854 100.515 102.903C100.891 103.289 101.159 103.767 101.291 104.289C101.423 104.811 101.415 105.358 101.267 105.876C101.119 106.394 100.838 106.864 100.45 107.238C100.063 107.612 99.5833 107.877 99.0605 108.006C93.2964 109.811 87.1745 105.081 87.1745 98.7027ZM111.016 108.309C110.869 108.309 110.48 108.309 110.091 108.247C108.535 108.092 107.283 107.57 106.761 105.96C106.279 104.482 106.901 103.37 107.944 102.351C110.651 99.6906 113.311 96.9836 116.003 94.3077C117.628 92.682 119.114 92.9853 120.047 95.0856C120.671 96.5514 120.917 98.1505 120.761 99.7359C120.605 101.321 120.054 102.842 119.157 104.159C118.26 105.475 117.047 106.546 115.628 107.271C114.21 107.996 112.632 108.353 111.04 108.309H111.016Z" fill="#F59149"/>
</g>
<defs>
<filter id="filter0_d_180_3467" x="13.7878" y="13.0609" width="180.424" height="198.622" filterUnits="userSpaceOnUse" color-interpolation-filters="sRGB">
<feFlood flood-opacity="0" result="BackgroundImageFix"/>
<feColorMatrix in="SourceAlpha" type="matrix" values="0 0 0 0 0 0 0 0 0 0 0 0 0 0 0 0 0 0 127 0" result="hardAlpha"/>
<feOffset dy="8.37209"/>
<feGaussianBlur stdDeviation="10.4651"/>
<feComposite in2="hardAlpha" operator="out"/>
<feColorMatrix type="matrix" values="0 0 0 0 0.921569 0 0 0 0 0.603922 0 0 0 0 0.301961 0 0 0 0.15 0"/>
<feBlend mode="normal" in2="BackgroundImageFix" result="effect1_dropShadow_180_3467"/>
<feBlend mode="normal" in="SourceGraphic" in2="effect1_dropShadow_180_3467" result="shape"/>
</filter>
<filter id="filter1_d_180_3467" x="37.7084" y="34.547" width="132.583" height="146.906" filterUnits="userSpaceOnUse" color-interpolation-filters="sRGB">
<feFlood flood-opacity="0" result="BackgroundImageFix"/>
<feColorMatrix in="SourceAlpha" type="matrix" values="0 0 0 0 0 0 0 0 0 0 0 0 0 0 0 0 0 0 127 0" result="hardAlpha"/>
<feOffset dy="4"/>
<feGaussianBlur stdDeviation="5"/>
<feComposite in2="hardAlpha" operator="out"/>
<feColorMatrix type="matrix" values="0 0 0 0 0.921569 0 0 0 0 0.603922 0 0 0 0 0.301961 0 0 0 0.3 0"/>
<feBlend mode="normal" in2="BackgroundImageFix" result="effect1_dropShadow_180_3467"/>
<feBlend mode="normal" in="SourceGraphic" in2="effect1_dropShadow_180_3467" result="shape"/>
</filter>
<clipPath id="clip0_180_3467">
<rect width="54" height="54" fill="white" transform="translate(77 77)"/>
</clipPath>
</defs>
</svg>
