<svg width="208" height="212" viewBox="0 0 208 212" fill="none" xmlns="http://www.w3.org/2000/svg">
  <path d="M98.75 17.6084C101.897 15.7913 105.752 15.7349 108.943 17.4385L109.25 17.6084L176.192 56.2578C179.441 58.1334 181.442 61.5995 181.442 65.3506V142.649C181.442 146.283 179.564 149.649 176.493 151.562L176.192 151.742L109.25 190.392C106.103 192.209 102.248 192.265 99.0566 190.562L98.75 190.392L31.8076 151.742C28.5591 149.867 26.5577 146.401 26.5576 142.649V65.3506C26.5577 61.7167 28.4361 58.3506 31.5068 56.4385L31.8076 56.2578L98.75 17.6084Z" stroke="#BABBC4"/>
  <g filter="url(#filter0_d_0_1)">
  <path d="M99 26.8867C102.094 25.1004 105.906 25.1004 109 26.8868L168.282 61.1132C171.376 62.8996 173.282 66.2008 173.282 69.7735V138.226C173.282 141.799 171.376 145.1 168.282 146.887L109 181.113C105.906 182.9 102.094 182.9 99 181.113L39.718 146.887C36.6239 145.1 34.718 141.799 34.718 138.226V69.7735C34.718 66.2008 36.624 62.8996 39.718 61.1132L99 26.8867Z" fill="white"/>
  </g>
  <g filter="url(#filter1_d_0_1)">
  <path d="M99 41.8868C102.094 40.1004 105.906 40.1004 109 41.8868L155.292 68.6133C158.386 70.3996 160.292 73.7008 160.292 77.2735V130.726C160.292 134.299 158.386 137.6 155.292 139.387L109 166.113C105.906 167.9 102.094 167.9 99 166.113L52.7083 139.387C49.6143 137.6 47.7083 134.299 47.7083 130.727V77.2735C47.7083 73.7008 49.6143 70.3996 52.7083 68.6132L99 41.8868Z" fill="white"/>
  <path d="M100.25 44.0518C102.498 42.7539 105.252 42.7129 107.531 43.9297L107.75 44.0518L154.042 70.7783C156.362 72.1181 157.792 74.5941 157.792 77.2734V130.727C157.792 133.322 156.45 135.727 154.257 137.093L154.042 137.222L107.75 163.948C105.502 165.246 102.748 165.287 100.469 164.07L100.25 163.948L53.958 137.222C51.6377 135.882 50.208 133.406 50.208 130.727V77.2734C50.208 74.6778 51.5498 72.273 53.7432 70.9072L53.958 70.7783L100.25 44.0518Z" stroke="#BABBC4" stroke-width="5"/>
  </g>
  <g clip-path="url(#clip0_0_1)">
  <g clip-path="url(#clip1_0_1)">
  <path d="M135 117.563V90.3132C135 87.9598 133.755 85.6065 131.639 84.4917L107.861 70.867C105.745 69.6283 103.131 69.6283 101.014 70.867L77.3612 84.4917C75.2449 85.7303 74 87.9598 74 90.3132V117.563C74 119.916 75.2449 122.27 77.3612 123.384L101.014 137.009C103.131 138.248 105.745 138.248 107.861 137.009L131.514 123.384C133.631 122.146 134.876 119.916 134.876 117.563H135Z" fill="#BABBC4"/>
  </g>
  <path d="M104.385 93.1035C101.795 93.1035 99.765 93.8385 98.26 95.3085C96.72 96.7785 95.985 98.8085 95.985 101.399H99.975C99.975 99.8935 100.255 98.7385 100.85 97.9335C101.55 96.9885 102.635 96.5335 104.14 96.5335C105.33 96.5335 106.275 96.8485 106.94 97.5135C107.57 98.1785 107.92 99.0885 107.92 100.244C107.92 101.119 107.605 101.959 106.975 102.729L106.555 103.219C104.28 105.249 102.915 106.719 102.46 107.664C101.97 108.609 101.76 109.764 101.76 111.094V111.584H105.785V111.094C105.785 110.254 105.96 109.484 106.31 108.784C106.625 108.154 107.08 107.559 107.71 107.069C109.39 105.599 110.405 104.654 110.72 104.304C111.56 103.184 112.015 101.749 112.015 99.9985C112.015 97.8635 111.315 96.1835 109.915 94.9585C108.515 93.6985 106.66 93.1035 104.385 93.1035ZM103.755 113.299C103.406 113.286 103.059 113.344 102.734 113.471C102.409 113.597 102.113 113.789 101.865 114.034C101.305 114.524 101.06 115.154 101.06 115.924C101.06 116.694 101.305 117.324 101.865 117.814C102.111 118.063 102.406 118.261 102.731 118.393C103.056 118.525 103.404 118.59 103.755 118.584C104.525 118.584 105.155 118.339 105.715 117.849C105.965 117.595 106.163 117.295 106.295 116.964C106.427 116.633 106.492 116.28 106.485 115.924C106.492 115.573 106.427 115.224 106.294 114.899C106.162 114.574 105.965 114.28 105.715 114.034C105.182 113.543 104.479 113.279 103.755 113.299Z" fill="white"/>
  </g>
  <defs>
  <filter id="filter0_d_0_1" x="13.7878" y="12.9887" width="180.424" height="198.767" filterUnits="userSpaceOnUse" color-interpolation-filters="sRGB">
  <feFlood flood-opacity="0" result="BackgroundImageFix"/>
  <feColorMatrix in="SourceAlpha" type="matrix" values="0 0 0 0 0 0 0 0 0 0 0 0 0 0 0 0 0 0 127 0" result="hardAlpha"/>
  <feOffset dy="8.37209"/>
  <feGaussianBlur stdDeviation="10.4651"/>
  <feComposite in2="hardAlpha" operator="out"/>
  <feColorMatrix type="matrix" values="0 0 0 0 0.729412 0 0 0 0 0.733333 0 0 0 0 0.768627 0 0 0 0.15 0"/>
  <feBlend mode="normal" in2="BackgroundImageFix" result="effect1_dropShadow_0_1"/>
  <feBlend mode="normal" in="SourceGraphic" in2="effect1_dropShadow_0_1" result="shape"/>
  </filter>
  <filter id="filter1_d_0_1" x="37.7084" y="34.5469" width="132.583" height="146.906" filterUnits="userSpaceOnUse" color-interpolation-filters="sRGB">
  <feFlood flood-opacity="0" result="BackgroundImageFix"/>
  <feColorMatrix in="SourceAlpha" type="matrix" values="0 0 0 0 0 0 0 0 0 0 0 0 0 0 0 0 0 0 127 0" result="hardAlpha"/>
  <feOffset dy="4"/>
  <feGaussianBlur stdDeviation="5"/>
  <feComposite in2="hardAlpha" operator="out"/>
  <feColorMatrix type="matrix" values="0 0 0 0 0.729412 0 0 0 0 0.733333 0 0 0 0 0.768627 0 0 0 0.3 0"/>
  <feBlend mode="normal" in2="BackgroundImageFix" result="effect1_dropShadow_0_1"/>
  <feBlend mode="normal" in="SourceGraphic" in2="effect1_dropShadow_0_1" result="shape"/>
  </filter>
  <clipPath id="clip0_0_1">
  <rect width="70" height="70" fill="white" transform="translate(69 69)"/>
  </clipPath>
  <clipPath id="clip1_0_1">
  <rect width="61" height="68" fill="white" transform="translate(74 70)"/>
  </clipPath>
  </defs>
  </svg>
